<?xml version="1.0" encoding="UTF-8"?>
<mxfile host="app.diagrams.net" modified="2024-01-01T00:00:00.000Z" agent="AI-Agency Architecture" etag="template" version="22.1.11" type="device">
  <diagram name="System Overview" id="system-overview">
    <mxGraphModel dx="1422" dy="754" grid="1" gridSize="10" guides="1" tooltips="1" connect="1" arrows="1" fold="1" page="1" pageScale="1" pageWidth="1169" pageHeight="827" math="0" shadow="0">
      <root>
        <mxCell id="0" />
        <mxCell id="1" parent="0" />
        
        <!-- Add your architecture components here -->
        <mxCell id="pulser-core" value="Pulser Core&#xa;Orchestration" style="rounded=1;whiteSpace=wrap;html=1;fillColor=#dae8fc;strokeColor=#6c8ebf;" vertex="1" parent="1">
          <mxGeometry x="490" y="200" width="120" height="60" as="geometry" />
        </mxCell>
        
        <mxCell id="ces-pilot" value="CES Pilot&#xa;Feature Importance" style="rounded=1;whiteSpace=wrap;html=1;fillColor=#f8cecc;strokeColor=#b85450;" vertex="1" parent="1">
          <mxGeometry x="300" y="320" width="120" height="60" as="geometry" />
        </mxCell>
        
        <mxCell id="scout-pilot" value="Scout Pilot&#xa;Retail Analytics" style="rounded=1;whiteSpace=wrap;html=1;fillColor=#d5e8d4;strokeColor=#82b366;" vertex="1" parent="1">
          <mxGeometry x="650" y="320" width="120" height="60" as="geometry" />
        </mxCell>
        
        <mxCell id="shared-services" value="Shared Services&#xa;LLM Adapters, Drive Monitor" style="rounded=1;whiteSpace=wrap;html=1;fillColor=#fff2cc;strokeColor=#d6b656;" vertex="1" parent="1">
          <mxGeometry x="490" y="80" width="120" height="60" as="geometry" />
        </mxCell>
        
        <!-- Add connections -->
        <mxCell id="edge1" edge="1" parent="1" source="shared-services" target="pulser-core">
          <mxGeometry relative="1" as="geometry" />
        </mxCell>
        
        <mxCell id="edge2" edge="1" parent="1" source="pulser-core" target="ces-pilot">
          <mxGeometry relative="1" as="geometry" />
        </mxCell>
        
        <mxCell id="edge3" edge="1" parent="1" source="pulser-core" target="scout-pilot">
          <mxGeometry relative="1" as="geometry" />
        </mxCell>
        
      </root>
    </mxGraphModel>
  </diagram>
</mxfile>